<?xml version="1.0" standalone="no"?><!DOCTYPE svg PUBLIC "-//W3C//DTD SVG 1.1//EN" "http://www.w3.org/Graphics/SVG/1.1/DTD/svg11.dtd"><svg t="1545619312114" class="icon" style="" viewBox="0 0 1024 1024" version="1.1" xmlns="http://www.w3.org/2000/svg" p-id="25399" xmlns:xlink="http://www.w3.org/1999/xlink" width="200" height="200"><defs><style type="text/css"></style></defs><path d="M898.532917 751.317265a454.895794 454.895794 0 1 1 39.121038-399.853402 56.861974 56.861974 0 0 0 47.650334 36.619111l5.572474-56.634526a511.757768 511.757768 0 1 0-44.011168 449.835078l5.515611-56.577665a56.861974 56.861974 0 0 0-53.848289 26.611404z" fill="#979797" p-id="25400"></path><path d="M710.774678 341.171845a28.430987 28.430987 0 1 0 0 56.861975h284.309871a28.430987 28.430987 0 0 0 28.430987-28.430988V88.70468a28.430987 28.430987 0 1 0-56.861974 0V341.171845h-255.878884z" fill="#979797" p-id="25401"></path></svg>